<svg xmlns="http://www.w3.org/2000/svg" xmlns:xlink="http://www.w3.org/1999/xlink" viewBox="0 0 750 500"><defs><style>.cls-1,.cls-23,.cls-36,.cls-37,.cls-38,.cls-39,.cls-40,.cls-44,.cls-6{fill:none;}.cls-2{isolation:isolate;}.cls-3{clip-path:url(#clip-path);}.cls-4{fill:url(#linear-gradient);}.cls-5{fill:url(#linear-gradient-2);}.cls-23,.cls-36,.cls-37,.cls-38,.cls-39,.cls-40,.cls-44,.cls-6{stroke-linecap:round;stroke-linejoin:round;}.cls-36,.cls-37,.cls-38,.cls-39,.cls-40,.cls-44,.cls-6{stroke-width:3px;}.cls-6{stroke:url(#linear-gradient-3);}.cls-7{fill:url(#linear-gradient-4);}.cls-8{fill:url(#linear-gradient-5);}.cls-9{fill:url(#linear-gradient-6);}.cls-10,.cls-23,.cls-35{opacity:0.66;mix-blend-mode:overlay;}.cls-11,.cls-35{fill:#fff;}.cls-12{fill:url(#linear-gradient-7);}.cls-13{fill:url(#linear-gradient-8);}.cls-14{fill:url(#linear-gradient-9);}.cls-15{fill:url(#linear-gradient-10);}.cls-16{fill:url(#linear-gradient-11);}.cls-17{fill:url(#linear-gradient-12);}.cls-18{fill:url(#linear-gradient-13);}.cls-19{fill:url(#linear-gradient-14);}.cls-20{fill:url(#linear-gradient-16);}.cls-21{fill:url(#linear-gradient-17);}.cls-22{fill:url(#linear-gradient-18);}.cls-23,.cls-40{stroke:#fff;}.cls-23{stroke-width:7px;}.cls-24{fill:url(#linear-gradient-19);}.cls-25{fill:url(#linear-gradient-20);}.cls-26{fill:url(#linear-gradient-21);}.cls-27{fill:url(#linear-gradient-22);}.cls-28{fill:url(#linear-gradient-23);}.cls-29{fill:url(#linear-gradient-24);}.cls-30{fill:url(#linear-gradient-25);}.cls-31{fill:url(#linear-gradient-26);}.cls-32{fill:url(#linear-gradient-27);}.cls-33{fill:url(#linear-gradient-28);}.cls-34{fill:url(#linear-gradient-29);}.cls-36{stroke:url(#linear-gradient-30);}.cls-37{stroke:url(#linear-gradient-31);}.cls-38{stroke:url(#linear-gradient-32);}.cls-39{stroke:url(#linear-gradient-33);}.cls-41{fill:url(#linear-gradient-34);}.cls-42{fill:url(#linear-gradient-35);}.cls-43{fill:url(#linear-gradient-36);}.cls-44{stroke:url(#linear-gradient-37);}.cls-45{fill:url(#linear-gradient-38);}.cls-46{fill:url(#linear-gradient-39);}.cls-47{fill:url(#linear-gradient-40);}</style><clipPath id="clip-path"><polyline class="cls-1" points="750.43 0 750.43 500 0.43 500 0.43 0"/></clipPath><linearGradient id="linear-gradient" x1="-204.24" y1="336.7" x2="6.84" y2="125.62" gradientTransform="translate(315.99 601.73) rotate(180)" gradientUnits="userSpaceOnUse"><stop offset="0" stop-color="#ff7043"/><stop offset="1" stop-color="#ffee58"/></linearGradient><linearGradient id="linear-gradient-2" x1="-250.28" y1="489.81" x2="-36.14" y2="275.67" gradientTransform="translate(315.99 601.73) rotate(180)" gradientUnits="userSpaceOnUse"><stop offset="0" stop-color="#ff4081"/><stop offset="1" stop-color="#5c9aff"/></linearGradient><linearGradient id="linear-gradient-3" x1="574.32" y1="96.82" x2="613.09" y2="58.05" gradientTransform="matrix(1, 0, 0, 1, 0, 0)" xlink:href="#linear-gradient-2"/><linearGradient id="linear-gradient-4" x1="-160.71" y1="358.41" x2="-107.3" y2="305.01" gradientTransform="translate(315.99 601.73) rotate(180)" gradientUnits="userSpaceOnUse"><stop offset="0" stop-color="#5c9aff"/><stop offset="1" stop-color="#ff4081"/></linearGradient><linearGradient id="linear-gradient-5" x1="-160.71" y1="358.41" x2="-107.3" y2="305.01" xlink:href="#linear-gradient-4"/><linearGradient id="linear-gradient-6" x1="-160.71" y1="358.41" x2="-107.3" y2="305.01" xlink:href="#linear-gradient-4"/><linearGradient id="linear-gradient-7" x1="-62.59" y1="352.08" x2="-7.84" y2="297.33" xlink:href="#linear-gradient-2"/><linearGradient id="linear-gradient-8" x1="-62.59" y1="352.08" x2="-7.84" y2="297.33" xlink:href="#linear-gradient-2"/><linearGradient id="linear-gradient-9" x1="-62.59" y1="352.08" x2="-7.84" y2="297.33" xlink:href="#linear-gradient-2"/><linearGradient id="linear-gradient-10" x1="-53.99" y1="162.73" x2="-21.19" y2="129.93" gradientTransform="translate(315.99 601.73) rotate(180)" gradientUnits="userSpaceOnUse"><stop offset="0" stop-color="#ffee58"/><stop offset="1" stop-color="#ff7043"/></linearGradient><linearGradient id="linear-gradient-11" x1="-53.99" y1="162.73" x2="-21.18" y2="129.93" xlink:href="#linear-gradient-10"/><linearGradient id="linear-gradient-12" x1="-53.99" y1="162.73" x2="-21.18" y2="129.93" xlink:href="#linear-gradient-10"/><linearGradient id="linear-gradient-13" x1="-63.59" y1="533.65" x2="-10.43" y2="480.49" gradientTransform="translate(315.99 601.73) rotate(180)" gradientUnits="userSpaceOnUse"><stop offset="0" stop-color="#26c6da"/><stop offset="1" stop-color="#d4e157"/></linearGradient><linearGradient id="linear-gradient-14" x1="-63.59" y1="533.65" x2="-10.43" y2="480.49" xlink:href="#linear-gradient-13"/><linearGradient id="linear-gradient-16" x1="68.53" y1="294.63" x2="121.7" y2="241.47" xlink:href="#linear-gradient-13"/><linearGradient id="linear-gradient-17" x1="68.53" y1="294.63" x2="121.7" y2="241.47" xlink:href="#linear-gradient-13"/><linearGradient id="linear-gradient-18" x1="68.53" y1="294.63" x2="121.7" y2="241.47" xlink:href="#linear-gradient-13"/><linearGradient id="linear-gradient-19" x1="52.6" y1="355.47" x2="87.34" y2="320.73" xlink:href="#linear-gradient-13"/><linearGradient id="linear-gradient-20" x1="358.04" y1="-111.46" x2="291.97" y2="-45.4" xlink:href="#linear-gradient-4"/><linearGradient id="linear-gradient-21" x1="358.04" y1="-111.46" x2="291.97" y2="-45.39" xlink:href="#linear-gradient-4"/><linearGradient id="linear-gradient-22" x1="569.44" y1="99.94" x2="503.37" y2="166" gradientTransform="matrix(1, 0, 0, 1, 0, 0)" xlink:href="#linear-gradient-4"/><linearGradient id="linear-gradient-23" x1="506.76" y1="344.26" x2="539.77" y2="311.24" gradientTransform="matrix(1, 0, 0, 1, 0, 0)" xlink:href="#linear-gradient"/><linearGradient id="linear-gradient-24" x1="506.76" y1="344.26" x2="539.77" y2="311.24" gradientTransform="matrix(1, 0, 0, 1, 0, 0)" xlink:href="#linear-gradient"/><linearGradient id="linear-gradient-25" x1="150.27" y1="321.66" x2="187.56" y2="284.37" xlink:href="#linear-gradient-13"/><linearGradient id="linear-gradient-26" x1="150.27" y1="321.66" x2="187.56" y2="284.37" xlink:href="#linear-gradient-13"/><linearGradient id="linear-gradient-27" x1="-83.41" y1="544.12" x2="140.55" y2="320.17" gradientTransform="translate(315.99 601.73) rotate(180)" gradientUnits="userSpaceOnUse"><stop offset="0" stop-color="#d4e157"/><stop offset="1" stop-color="#26c6da"/></linearGradient><linearGradient id="linear-gradient-28" x1="367.7" y1="302.2" x2="305.95" y2="363.94" gradientTransform="matrix(1, 0, 0, 1, 0, 0)" xlink:href="#linear-gradient-4"/><linearGradient id="linear-gradient-29" x1="367.7" y1="302.2" x2="305.95" y2="363.94" gradientTransform="matrix(1, 0, 0, 1, 0, 0)" xlink:href="#linear-gradient-4"/><linearGradient id="linear-gradient-30" x1="226.41" y1="369.6" x2="306.14" y2="289.87" gradientTransform="matrix(1, 0, 0, 1, 0, 0)" xlink:href="#linear-gradient-2"/><linearGradient id="linear-gradient-31" x1="212.38" y1="461.95" x2="304.85" y2="369.48" gradientTransform="matrix(1, 0, 0, 1, 0, 0)" xlink:href="#linear-gradient-4"/><linearGradient id="linear-gradient-32" x1="200.58" y1="163.99" x2="247.87" y2="116.69" gradientTransform="matrix(1, 0, 0, 1, 0, 0)" xlink:href="#linear-gradient-27"/><linearGradient id="linear-gradient-33" x1="536.08" y1="240.39" x2="598.72" y2="240.39" gradientTransform="matrix(1, 0, 0, 1, 0, 0)" xlink:href="#linear-gradient"/><linearGradient id="linear-gradient-34" x1="-165.83" y1="574.58" x2="-96.1" y2="504.85" xlink:href="#linear-gradient-13"/><linearGradient id="linear-gradient-35" x1="-165.83" y1="574.58" x2="-96.1" y2="504.85" xlink:href="#linear-gradient-13"/><linearGradient id="linear-gradient-36" x1="-165.83" y1="574.58" x2="-96.1" y2="504.85" xlink:href="#linear-gradient-13"/><linearGradient id="linear-gradient-37" x1="410.03" y1="147.12" x2="487.09" y2="70.07" gradientTransform="matrix(1, 0, 0, 1, 0, 0)" xlink:href="#linear-gradient-27"/><linearGradient id="linear-gradient-38" x1="3.81" y1="285.11" x2="65.54" y2="223.38" xlink:href="#linear-gradient-27"/><linearGradient id="linear-gradient-39" x1="553.38" y1="74.88" x2="597.91" y2="30.36" gradientTransform="matrix(1, 0, 0, 1, 0, 0)" xlink:href="#linear-gradient-2"/><linearGradient id="linear-gradient-40" x1="553.38" y1="74.88" x2="597.91" y2="30.36" gradientTransform="matrix(1, 0, 0, 1, 0, 0)" xlink:href="#linear-gradient-2"/></defs><g class="cls-2"><g id="BACKGROUND_2" data-name="BACKGROUND 2"><g class="cls-3"><path class="cls-4" d="M303.21,416.28h0a8.49,8.49,0,0,0,12,0l6.57-6.57a2.49,2.49,0,0,1,3.52,0h0a2.49,2.49,0,0,1,0,3.52l-29.1,29.1a14.73,14.73,0,0,0,0,20.84h0a14.73,14.73,0,0,0,20.84,0l55.26-55.25a4.36,4.36,0,0,1,6.18,0h0a4.37,4.37,0,0,1,0,6.17L376.63,416a12,12,0,0,0,0,17.06,11.8,11.8,0,0,0,16.55-.16l21.78-21.78a4.61,4.61,0,0,1,6.5,0h0a4.61,4.61,0,0,1,0,6.5l-32.91,32.9a8.5,8.5,0,0,0,0,12h0a8.5,8.5,0,0,0,12,0l99.95-100a8.49,8.49,0,0,0,0-12h0a8.5,8.5,0,0,0-12,0l-25.82,25.82a4.59,4.59,0,0,1-6.49,0h0a4.61,4.61,0,0,1,0-6.5L532.06,294a12,12,0,0,0,0-17.06,11.82,11.82,0,0,0-16.56.16L395.11,397.46a4.35,4.35,0,0,1-6.17,0h0a4.35,4.35,0,0,1,0-6.17l31.68-31.68a14.74,14.74,0,0,0,0-20.85h0a14.74,14.74,0,0,0-20.84,0l-46.33,46.33a2.47,2.47,0,0,1-3.52,0h0a2.48,2.48,0,0,1,0-3.51l65.25-65.25a8.52,8.52,0,0,0,0-12h0a8.52,8.52,0,0,0-12,0l-100,100A8.49,8.49,0,0,0,303.21,416.28Z"/><path class="cls-5" d="M565.18,194.15h0a8.5,8.5,0,0,0-12,0l-6.56,6.57a2.49,2.49,0,0,1-3.52,0h0a2.49,2.49,0,0,1,0-3.52l30.07-30.08c5.84-5.84,6-15.58.08-21.31a14.75,14.75,0,0,0-20.65.2l-42.76,42.76a4.37,4.37,0,0,1-6.17,0h0a4.36,4.36,0,0,1,0-6.18l1.8-1.8a12,12,0,0,0,.63-16.54,11.82,11.82,0,0,0-17.11-.42l-21.78,21.78a4.59,4.59,0,0,1-6.5,0h0a4.59,4.59,0,0,1,0-6.49l80.38-80.38a8.49,8.49,0,0,0,0-12h0a8.49,8.49,0,0,0-12,0L472.3,143.49a4.1,4.1,0,0,1-5.8,0h0a4.1,4.1,0,0,1,0-5.81l7.06-7.06a7,7,0,0,0,.35-9.63,6.79,6.79,0,0,0-9.73-.15L310.54,274.48a7,7,0,0,0-.35,9.63,6.77,6.77,0,0,0,9.73.15L379,225.15a4.1,4.1,0,0,1,5.8,0h0a4.09,4.09,0,0,1,0,5.8l-3.2,3.21a8.49,8.49,0,0,0,0,12h0a8.5,8.5,0,0,0,12,0l25.82-25.82a4.59,4.59,0,0,1,6.49,0h0a4.59,4.59,0,0,1,0,6.49L370.11,282.7a12,12,0,0,0-.63,16.54,11.82,11.82,0,0,0,17.11.41l81.59-81.59a4.36,4.36,0,0,1,6.18,0h0a4.37,4.37,0,0,1,0,6.17l-12.85,12.85a14.73,14.73,0,0,0,0,20.84h0a14.73,14.73,0,0,0,20.84,0l17.17-17.16a2.47,2.47,0,0,1,3.52,0h0a2.48,2.48,0,0,1,0,3.51L430.1,317.21a8.5,8.5,0,0,0,0,12h0a8.49,8.49,0,0,0,12,0L565.18,206.16A8.5,8.5,0,0,0,565.18,194.15Z"/><line class="cls-6" x1="575.38" y1="95.76" x2="612.03" y2="59.11"/><path class="cls-7" d="M426.18,287.26a6.56,6.56,0,1,1-4.65,1.92A6.65,6.65,0,0,1,426.18,287.26Z"/><path class="cls-8" d="M443.32,276.68a6.58,6.58,0,0,1,0,9.31h0a6.58,6.58,0,0,1-9.29,0h0a6.58,6.58,0,0,1,0-9.31h0a6.54,6.54,0,0,1,4.65-1.91h0A6.55,6.55,0,0,1,443.32,276.68Z"/><path class="cls-9" d="M451.17,262.27a6.57,6.57,0,1,1-4.65,1.92A6.63,6.63,0,0,1,451.17,262.27Z"/><g class="cls-10"><path class="cls-11" d="M534.25,179.19a6.59,6.59,0,1,1-4.64,1.93A6.61,6.61,0,0,1,534.25,179.19Z"/><path class="cls-11" d="M551.39,168.62a6.57,6.57,0,0,1,0,9.3h0a6.58,6.58,0,0,1-9.29,0h0a6.57,6.57,0,0,1,0-9.3h0a6.53,6.53,0,0,1,4.64-1.93h0A6.52,6.52,0,0,1,551.39,168.62Z"/><path class="cls-11" d="M559.24,154.2a6.59,6.59,0,1,1-4.65,1.93A6.61,6.61,0,0,1,559.24,154.2Z"/></g><path class="cls-12" d="M332.18,292.2a3.87,3.87,0,0,1,2.72,1.13,3.86,3.86,0,0,1,0,5.42,4,4,0,0,1-5.43,0,3.81,3.81,0,0,1,0-5.42A3.83,3.83,0,0,1,332.18,292.2Z"/><path class="cls-13" d="M362.52,265.7a3.83,3.83,0,0,1,0,5.42h0a3.84,3.84,0,0,1-5.43,0h0a3.84,3.84,0,0,1,0-5.42h0a3.84,3.84,0,0,1,2.72-1.12h0A3.82,3.82,0,0,1,362.52,265.7Zm-13.81,13.81a3.84,3.84,0,0,1,0,5.42h0a3.83,3.83,0,0,1-5.42,0h0a3.83,3.83,0,0,1,0-5.42h0a3.79,3.79,0,0,1,2.7-1.12h0A3.82,3.82,0,0,1,348.71,279.51Z"/><path class="cls-14" d="M373.62,250.76a3.89,3.89,0,0,1,2.71,1.13,3.84,3.84,0,0,1,0,5.42,4,4,0,0,1-5.42,0,3.84,3.84,0,0,1,2.71-6.55Z"/><path class="cls-15" d="M339.75,465.39a3.92,3.92,0,0,1,2.72,1.12,3.86,3.86,0,0,1,0,5.42,4,4,0,0,1-5.43,0,3.82,3.82,0,0,1-1.13-2.7,3.84,3.84,0,0,1,3.84-3.84Z"/><path class="cls-16" d="M356.23,452.75a3.84,3.84,0,0,1,0,5.42h0a3.84,3.84,0,0,1-5.43,0h0a3.83,3.83,0,0,1,0-5.42h0a3.83,3.83,0,0,1,2.71-1.12h0A3.84,3.84,0,0,1,356.23,452.75Z"/><path class="cls-17" d="M367.27,437.87a3.83,3.83,0,0,1,2.72,6.54,4,4,0,0,1-5.42,0,3.83,3.83,0,0,1,2.7-6.54Z"/><path class="cls-18" d="M330.85,110.23a6.56,6.56,0,1,1-4.65,1.92A6.65,6.65,0,0,1,330.85,110.23Z"/><path class="cls-19" d="M356.22,91.44a6.59,6.59,0,0,1,0,9.3h0a6.59,6.59,0,0,1-9.3,0h0a6.57,6.57,0,0,1,0-9.3h0a6.53,6.53,0,0,1,4.64-1.93h0A6.54,6.54,0,0,1,356.22,91.44Z"/><path class="cls-18" d="M372.28,68.79a6.56,6.56,0,0,1,6.57,6.57A6.7,6.7,0,0,1,376.94,80a6.58,6.58,0,1,1-4.66-11.23Z"/><path class="cls-20" d="M198.73,349.25a6.57,6.57,0,0,1,6.58,6.57,6.58,6.58,0,1,1-13.15,0,6.56,6.56,0,0,1,6.57-6.57Z"/><path class="cls-21" d="M224.1,330.46a6.59,6.59,0,0,1,0,9.3h0a6.6,6.6,0,0,1-9.31,0h0a6.59,6.59,0,0,1,0-9.3h0a6.55,6.55,0,0,1,4.65-1.93h0A6.56,6.56,0,0,1,224.1,330.46Z"/><path class="cls-22" d="M240.16,307.81a6.56,6.56,0,0,1,6.57,6.57,6.7,6.7,0,0,1-1.91,4.66,6.58,6.58,0,0,1-9.31,0,6.62,6.62,0,0,1,0-9.3A6.63,6.63,0,0,1,240.16,307.81Z"/><line class="cls-23" x1="521.67" y1="287.3" x2="501.89" y2="307.08"/><circle class="cls-24" cx="251.38" cy="258.27" r="15.31"/><path class="cls-25" d="M538.52,128.77a3.91,3.91,0,0,1,2.72,1.13,3.88,3.88,0,0,1,0,5.43,4,4,0,0,1-5.43,0,3.85,3.85,0,0,1,2.71-6.56Z"/><path class="cls-26" d="M568.86,102.28a3.81,3.81,0,0,1,0,5.41h0a3.82,3.82,0,0,1-5.43,0h0a3.83,3.83,0,0,1,0-5.41h0a3.87,3.87,0,0,1,2.72-1.13h0A3.83,3.83,0,0,1,568.86,102.28Zm-13.81,13.81a3.84,3.84,0,0,1,0,5.42h0a3.83,3.83,0,0,1-5.42,0h0a3.83,3.83,0,0,1,0-5.42h0a3.8,3.8,0,0,1,2.71-1.12h0A3.82,3.82,0,0,1,555.05,116.09Z"/><circle class="cls-27" cx="518.51" cy="150.86" r="11.19"/><circle class="cls-28" cx="512.37" cy="338.65" r="8.83"/><path class="cls-29" d="M524.06,320.08a4.86,4.86,0,1,1,0,6.87A4.85,4.85,0,0,1,524.06,320.08Z"/><path class="cls-30" d="M164.21,294.07a8.84,8.84,0,1,1,0-12.5A8.84,8.84,0,0,1,164.21,294.07Z"/><path class="cls-31" d="M146.27,306.38a4.86,4.86,0,1,1,0-6.87A4.86,4.86,0,0,1,146.27,306.38Z"/><path class="cls-32" d="M253.18,111a10.79,10.79,0,0,0,15-.38l10.18-10.18a4.53,4.53,0,0,1,6.41,0h0a4.53,4.53,0,0,1,0,6.41L197.61,194a5.15,5.15,0,0,0-.49,6.88,5,5,0,0,0,7.43.37l27.75-27.75a4,4,0,0,1,5.38-.35A3.92,3.92,0,0,1,238,179L169.85,247c-7.66,7.66-8.22,20.14-.84,28.07a20,20,0,0,0,28.77.53l97.09-97.09a4.54,4.54,0,0,1,6.06-.43,4.42,4.42,0,0,1,.32,6.54L267.91,218a17,17,0,0,0-.71,23.58,16.77,16.77,0,0,0,24.16.44l4.86-4.86a4.55,4.55,0,0,1,6.06-.42,4.41,4.41,0,0,1,.32,6.53l-48.19,48.2a7,7,0,0,0-.35,9.63,6.77,6.77,0,0,0,9.72.15L401.19,163.84a7,7,0,0,0,.35-9.63,6.79,6.79,0,0,0-9.73-.15L351.88,194a4.55,4.55,0,0,1-6.06.42,4.41,4.41,0,0,1-.32-6.53l59.27-59.27a17.07,17.07,0,0,0,.71-23.59,16.8,16.8,0,0,0-24.17-.44L321.89,164a4.55,4.55,0,0,1-6.06.43,4.42,4.42,0,0,1-.32-6.54l4.48-4.48c7.67-7.66,8.23-20.15.85-28.07a20,20,0,0,0-28.77-.53L275.8,141.09a4,4,0,0,1-5.38.35,3.92,3.92,0,0,1-.27-5.78l100-99.95a5.17,5.17,0,0,0,.49-6.88,5,5,0,0,0-7.43-.36l-36.4,36.4a4.53,4.53,0,0,1-6.41,0h0a4.53,4.53,0,0,1,0-6.41L326,52.82a10.77,10.77,0,0,0,.38-15,10.55,10.55,0,0,0-15.06-.14L253,95.92A10.55,10.55,0,0,0,253.18,111Z"/><path class="cls-33" d="M360.9,309h0a11.57,11.57,0,0,1,0,16.35l-9.48,9.48a11.55,11.55,0,0,1-16.35,0h0a11.56,11.56,0,0,1,0-16.34l9.48-9.49A11.57,11.57,0,0,1,360.9,309Z"/><circle class="cls-34" cx="319.7" cy="350.19" r="11.56"/><circle class="cls-35" cx="282.32" cy="227.33" r="5.3"/><circle class="cls-35" cx="299.51" cy="210.14" r="8.83"/><g class="cls-10"><path class="cls-11" d="M191.92,247.28a6.59,6.59,0,0,1,6.58,6.58,6.58,6.58,0,0,1-13.15,0,6.57,6.57,0,0,1,6.57-6.58Z"/><path class="cls-11" d="M210.33,235.45a6.58,6.58,0,0,1,0,9.29h0a6.54,6.54,0,0,1-9.29,0h0a6.54,6.54,0,0,1,0-9.29h0a6.55,6.55,0,0,1,4.64-1.93h0A6.57,6.57,0,0,1,210.33,235.45Z"/><path class="cls-11" d="M219.45,219.76a6.59,6.59,0,1,1-4.65,1.93A6.57,6.57,0,0,1,219.45,219.76Z"/></g><line class="cls-36" x1="305.08" y1="290.93" x2="227.47" y2="368.54"/><line class="cls-37" x1="303.79" y1="370.54" x2="213.44" y2="460.89"/><line class="cls-38" x1="246.81" y1="117.75" x2="201.64" y2="162.93"/><line class="cls-39" x1="597.22" y1="210.57" x2="537.58" y2="270.21"/><line class="cls-40" x1="490.05" y1="389.81" x2="455.04" y2="424.83"/><path class="cls-41" d="M477.66,27.46a3.91,3.91,0,0,1,2.72,1.13,3.84,3.84,0,0,1,0,5.42A4,4,0,0,1,475,34a3.86,3.86,0,0,1-1.12-2.72,3.82,3.82,0,0,1,1.12-2.7A3.89,3.89,0,0,1,477.66,27.46Z"/><path class="cls-42" d="M467.73,41.23a3.84,3.84,0,0,1,0,5.43h0a3.84,3.84,0,0,1-5.43,0h0a3.84,3.84,0,0,1,0-5.43h0A3.86,3.86,0,0,1,465,40.11h0A3.87,3.87,0,0,1,467.73,41.23ZM455.08,53.89a3.84,3.84,0,0,1,0,5.42h0a3.84,3.84,0,0,1-5.43,0h0a3.84,3.84,0,0,1,0-5.42h0a3.78,3.78,0,0,1,2.71-1.13h0A3.81,3.81,0,0,1,455.08,53.89ZM442.43,66.53a3.84,3.84,0,0,1,0,5.43h0A3.84,3.84,0,0,1,437,72h0a3.84,3.84,0,0,1,0-5.43h0a3.86,3.86,0,0,1,2.71-1.12h0A3.86,3.86,0,0,1,442.43,66.53ZM429.78,79.19a3.84,3.84,0,0,1,0,5.42h0a3.84,3.84,0,0,1-5.42,0h0a3.83,3.83,0,0,1,0-5.42h0a3.78,3.78,0,0,1,2.7-1.12h0A3.82,3.82,0,0,1,429.78,79.19Z"/><path class="cls-43" d="M414.41,90.71a3.84,3.84,0,0,1,2.72,6.54,4,4,0,0,1-5.43,0,3.84,3.84,0,0,1,2.71-6.54Z"/><line class="cls-44" x1="486.02" y1="71.13" x2="411.09" y2="146.06"/><path class="cls-45" d="M312.18,316.62h0a8.21,8.21,0,0,1,0,11.6l-50.13,50.13a8.21,8.21,0,0,1-11.6,0h0a8.19,8.19,0,0,1,0-11.6l50.13-50.13A8.19,8.19,0,0,1,312.18,316.62Z"/><circle class="cls-46" cx="560.09" cy="68.18" r="8.83"/><path class="cls-47" d="M571.78,49.61a4.86,4.86,0,1,1,0,6.87A4.88,4.88,0,0,1,571.78,49.61Z"/></g></g></g></svg>