<svg xmlns="http://www.w3.org/2000/svg" viewBox="0 0 24 24">
  <defs>
    <style>
      .cls-1 {
        fill: #fb5b6c;
      }

      .cls-2 {
        fill: #fff;
      }
    </style>
  </defs>
  <g id="Group_784" data-name="Group 784" transform="translate(-594 -2385)">
    <g id="Group_754" data-name="Group 754" transform="translate(0 748)">
      <rect id="Rectangle_125" data-name="Rectangle 125" class="cls-1" width="24" height="24" rx="5" transform="translate(594 1637)"/>
    </g>
    <path id="Path_1503" data-name="Path 1503" class="cls-2" d="M10.66,1.57h-2.4A2,2,0,0,0,6.2,0,2,2,0,0,0,4.132,1.57h-2.4A1.654,1.654,0,0,0,0,3.057V3.14a1.6,1.6,0,0,0,1.074,1.4v7.107A1.654,1.654,0,0,0,2.81,13.139H9.5a1.6,1.6,0,0,0,1.735-1.487V4.545A1.492,1.492,0,0,0,12.4,3.14V3.057A1.654,1.654,0,0,0,10.66,1.57ZM6.2.744a1.4,1.4,0,0,1,1.24.826H4.958A1.272,1.272,0,0,1,6.2.744Zm4.3,10.99a.905.905,0,0,1-.909.826H2.892a.849.849,0,0,1-.909-.826V4.71h8.511ZM11.569,3.14a.905.905,0,0,1-.909.826H1.735A.849.849,0,0,1,.826,3.14V3.057a.905.905,0,0,1,.909-.826H10.66a.977.977,0,0,1,.909.909Zm-7.6,8.429a.378.378,0,0,0,.413-.331V7.189a.378.378,0,0,0-.413-.331.378.378,0,0,0-.413.331v4.049A.378.378,0,0,0,3.966,11.569Zm2.231,0a.378.378,0,0,0,.413-.331V7.189A.378.378,0,0,0,6.2,6.859a.378.378,0,0,0-.413.331v4.049A.378.378,0,0,0,6.2,11.569Zm2.231,0a.378.378,0,0,0,.413-.331V7.189a.424.424,0,0,0-.826,0v4.049A.378.378,0,0,0,8.429,11.569Z" transform="translate(600 2390)"/>
  </g>
</svg>
